<svg xmlns="http://www.w3.org/2000/svg"  viewBox="0 0 48 48" width="48px" height="48px"><g id="Layer_3"><linearGradient id="SVGID_1_" x1="24" x2="24" y1="-13.106" y2="118.283" gradientUnits="userSpaceOnUse"><stop offset=".9" stop-color="#6d7882"/><stop offset=".917" stop-color="#45494d"/></linearGradient><path fill="url(#SVGID_1_)" d="M42,37c0,2.8-2.2,5-5,5H11c-2.8,0-5-2.2-5-5V11c0-2.8,2.2-5,5-5h26c2.8,0,5,2.2,5,5V37z"/><path fill="#fbe9e7" d="M37,43H11c-3.3,0-6-2.7-6-6V11c0-3.3,2.7-6,6-6h26c3.3,0,6,2.7,6,6v26C43,40.3,40.3,43,37,43z M11,7 c-2.2,0-4,1.8-4,4v26c0,2.2,1.8,4,4,4h26c2.2,0,4-1.8,4-4V11c0-2.2-1.8-4-4-4H11z"/><path fill="#fbe9e7" d="M16,36h-4c-0.6,0-1-0.4-1-1v-4c0-0.6,0.4-1,1-1h4c0.6,0,1,0.4,1,1v4C17,35.6,16.6,36,16,36z"/><path fill="#fbe9e7" d="M26,36h-4c-0.6,0-1-0.4-1-1v-4c0-0.6,0.4-1,1-1h4c0.6,0,1,0.4,1,1v4C27,35.6,26.6,36,26,36z"/><path fill="#fbe9e7" d="M36,36h-4c-0.6,0-1-0.4-1-1v-4c0-0.6,0.4-1,1-1h4c0.6,0,1,0.4,1,1v4C37,35.6,36.6,36,36,36z"/><linearGradient id="SVGID_00000057863624131618297470000007342244123114465960_" x1="20.824" x2="20.705" y1="9.62" y2="24.647" gradientUnits="userSpaceOnUse"><stop offset="0" stop-color="#fede00"/><stop offset="1" stop-color="#ffd000"/></linearGradient><rect width="6.5" height="15.2" x="17.5" y="11.4" fill="url(#SVGID_00000057863624131618297470000007342244123114465960_)"/><linearGradient id="SVGID_00000132768741537403172360000016523704297335626419_" x1="14.25" x2="14.25" y1="31.086" y2="10.086" gradientUnits="userSpaceOnUse"><stop offset="0" stop-color="#d91a2a"/><stop offset=".399" stop-color="#d91a2a"/><stop offset=".622" stop-color="#d91c2c"/><stop offset=".743" stop-color="#d92434"/><stop offset=".84" stop-color="#d93240"/><stop offset=".923" stop-color="#d94552"/><stop offset=".998" stop-color="#d95e69"/><stop offset="1" stop-color="#d95f6a"/></linearGradient><path fill="url(#SVGID_00000132768741537403172360000016523704297335626419_)" d="M12.1,11.4c-0.6,0-1.1,0.5-1.1,1.1v13 c0,0.6,0.5,1.1,1.1,1.1h5.4V11.4H12.1z"/><linearGradient id="SVGID_00000000224607553127941710000014476301254902967438_" x1="33.75" x2="33.75" y1="30.191" y2="7.647" gradientUnits="userSpaceOnUse"><stop offset=".263" stop-color="#1fa0e5"/><stop offset=".655" stop-color="#20a2e6"/><stop offset=".797" stop-color="#25a9e8"/><stop offset=".898" stop-color="#2db4ec"/><stop offset=".979" stop-color="#38c5f2"/><stop offset="1" stop-color="#3ccbf4"/></linearGradient><path fill="url(#SVGID_00000000224607553127941710000014476301254902967438_)" d="M35.9,11.4h-5.4v15.2h5.4 c0.6,0,1.1-0.5,1.1-1.1v-13C37,11.9,36.5,11.4,35.9,11.4z"/><linearGradient id="SVGID_00000137848657720437328070000005311976293896745368_" x1="27.052" x2="27.41" y1="8.909" y2="27.156" gradientUnits="userSpaceOnUse"><stop offset="0" stop-color="#21ad64"/><stop offset="1" stop-color="#088242"/></linearGradient><rect width="6.5" height="15.2" x="24" y="11.4" fill="url(#SVGID_00000137848657720437328070000005311976293896745368_)"/></g></svg>