<svg xmlns="http://www.w3.org/2000/svg" width="1000" height="1000" shape-rendering="geometricPrecision" image-rendering="optimizeQuality" fill-rule="evenodd" xmlns:v="https://vecta.io/nano"><path fill="#181a37" d="M470.5-.5h62c166.218 14.323 296.051 89.99 389.5 227 41.161 64.315 66.995 134.315 77.5 210v124c-17.945 128.583-75.612 235.249-173 320l-7-50 23-140-17.5-152-38-79-1.5 1.5a3174.39 3174.39 0 0 1-138-.5 583.42 583.42 0 0 1-19.5-26c3.774-28.863 10.107-57.196 19-85 3.201-24.74 6.868-49.407 11-74 2.295 3.297 4.962 6.297 8 9a2418.08 2418.08 0 0 0-15-110c-11.362-11.696-23.029-23.03-35-34L602.5 152a12.01 12.01 0 0 1-5.5 2.5L511.5 133l-69-3a621.97 621.97 0 0 0-28 6L359 182.5 313.5 274a1401.43 1401.43 0 0 1 40-13l-26 68 19.5 92.5c5.299-15.849 10.299-31.849 15-48a1940.91 1940.91 0 0 1 12.5 114l-86 26.5L222 624.5 184.5 740l17 89-1 2.5a506.45 506.45 0 0 0-27 13c-2.741.207-5.074 1.207-7 3-5.031 2.845-10.364 5.178-16 7C69.775 774.716 21.608 678.049 6 564.5c-16.8-150.233 23.534-282.566 121-397C219.396 66.943 333.896 10.943 470.5-.5z" opacity=".999"/><path fill="#070707" d="M826.5 880.5c-85.162 71.385-183.495 111.051-295 119h-59c-123.706-9.374-230.372-56.54-320-141.5-1.323-.816-1.989-1.983-2-3.5 5.636-1.822 10.969-4.155 16-7 2.741-.207 5.074-1.207 7-3 10.528-3.268 20.528-7.601 30-13l-16-91.5L225 628.5 292.5 522c27.855-9.341 55.855-18.174 84-26.5.206-2.995-.46-5.662-2-8a1940.91 1940.91 0 0 0-12.5-114c-4.701 16.151-9.701 32.151-15 48L327.5 329l26-68a1401.43 1401.43 0 0 0-40 13l45.5-91.5 55.5-46.5a621.97 621.97 0 0 1 28-6l69 3 85.5 21.5a12.01 12.01 0 0 0 5.5-2.5l13.5-11.5c11.971 10.97 23.638 22.304 35 34a2418.08 2418.08 0 0 1 15 110c-3.038-2.703-5.705-5.703-8-9-4.132 24.593-7.799 49.26-11 74-8.893 27.804-15.226 56.137-19 85a583.42 583.42 0 0 0 19.5 26 3174.39 3174.39 0 0 0 138 .5l1.5-1.5 38 79 17.5 152-23 140 7 50z" opacity=".999"/><path fill="#ba4667" d="M477.5 143.5l-33 4.5a462.9 462.9 0 0 0-27 10 1017.4 1017.4 0 0 0-40.5 35.5 1240.02 1240.02 0 0 1-21.5 42 173.55 173.55 0 0 1-4 3l-1-1.5a362.92 362.92 0 0 1 21.5-42.5 1692.07 1692.07 0 0 1 52.5-45.5c17.288-5.087 34.954-6.921 53-5.5z"/><path fill="#39291f" d="M477.5 143.5c11.338-.167 22.672 0 34 .5 29.927 7.219 59.594 15.385 89 24.5a10.41 10.41 0 0 0 5-1.5c2.581-2.536 5.414-4.702 8.5-6.5 4.621 3.921 8.788 8.254 12.5 13-1.846-.278-3.18.389-4 2l5 14a306.85 306.85 0 0 1-17 0c4.898 9.126 9.231 18.459 13 28-13.003-1.101-26.003-1.934-39-2.5 4.054 4.544 8.387 8.877 13 13a104.72 104.72 0 0 1-25-.5l-2-3c1.871.359 3.371 1.359 4.5 3-9.606-10.613-19.773-21.113-30.5-31.5l-66-14.5c-26.314 10.654-52.314 22.154-78 34.5 2.639.588 4.973.088 7-1.5a2187.39 2187.39 0 0 0 62-16.5c3.448-.859 6.948-1.359 10.5-1.5l57.5 7.5c1.829.273 3.329 1.107 4.5 2.5a245.9 245.9 0 0 1 31 43c1.543 1.589 1.543 2.923 0 4a197.39 197.39 0 0 0-8.5-2c-2.463-1.961-4.797-4.128-7-6.5a781.62 781.62 0 0 0-38-9c7.244 2.81 14.577 5.31 22 7.5-.237 1.291.096 2.291 1 3a280.53 280.53 0 0 0 8 13.5 389.65 389.65 0 0 0-19-4c3.059 7.452 6.393 14.786 10 22-7.125-2.556-14.125-5.723-21-9.5l-1 2c1.32 4.613 2.32 9.279 3 14a185.42 185.42 0 0 0-11-1l-19-24-49-15a1063.94 1063.94 0 0 0-53 31.5c-1.196.654-1.196 1.154 0 1.5a1496.82 1496.82 0 0 1 47-22c3.35-.165 6.683.002 10 .5a1014.25 1014.25 0 0 1 42 12.5l13 27.5-6 1 5 9c-9.865-1.048-19.532-3.215-29-6.5-2.238-1.037-4.571-1.203-7-.5-11.571 5.871-23.404 11.038-35.5 15.5l-51-8c-1.261.259-2.261.926-3 2-1.829 4.328-4.162 8.328-7 12 .52-9.348 1.187-18.681 2-28-5.304 14.905-9.971 29.905-14 45 .701-2.262 1.868-3.262 3.5-3-4.64 7.282-8.307 14.949-11 23-.71-6.133-2.044-12.133-4-18a210.29 210.29 0 0 1 8-32.5c.176-2.359-.491-2.859-2-1.5a585.29 585.29 0 0 1 8-26c4.445-5.379 8.779-10.879 13-16.5-.667-.667-1.333-.667-2 0a46.08 46.08 0 0 1-6 5.5c4.331-10.828 9.331-21.328 15-31.5a189.7 189.7 0 0 0-22 5.5c1.144-2.947 2.811-5.613 5-8l-1-1c-1.823 1.247-3.823 1.914-6 2a1240.02 1240.02 0 0 0 21.5-42 1017.4 1017.4 0 0 1 40.5-35.5 462.9 462.9 0 0 1 27-10l33-4.5z"/><path fill="#0e0c09" d="M443.5 153.5a230.11 230.11 0 0 0 23 2.5l-22 1c-10.234 3.393-20.234 7.393-30 12l-23 17c-1.555 1.289-3.221 1.956-5 2l28-24 29-10.5z"/><path fill="#2a2d47" d="M626.5 173.5l7.5 7c3.127 16.216 5.794 32.549 8 49a20.49 20.49 0 0 1 0 9l-56 33c-7.352-6.52-14.518-13.187-21.5-20a197.39 197.39 0 0 1 8.5 2c1.543-1.077 1.543-2.411 0-4a245.9 245.9 0 0 0-31-43c-1.171-1.393-2.671-2.227-4.5-2.5l-57.5-7.5c-3.552.141-7.052.641-10.5 1.5l-62 16.5a1145.72 1145.72 0 0 1 72-25l61 11.5c10.212 7.601 20.212 15.434 30 23.5l2 3a104.72 104.72 0 0 0 25 .5c-4.613-4.123-8.946-8.456-13-13 12.997.566 25.997 1.399 39 2.5-3.769-9.541-8.102-18.874-13-28a306.85 306.85 0 0 0 17 0l-5-14c.82-1.611 2.154-2.278 4-2z"/><path fill="#090909" d="M570.5 224.5c-9.788-8.066-19.788-15.899-30-23.5l-61-11.5a1145.72 1145.72 0 0 0-72 25c-2.027 1.588-4.361 2.088-7 1.5 25.686-12.346 51.686-23.846 78-34.5l66 14.5c10.727 10.387 20.894 20.887 30.5 31.5-1.129-1.641-2.629-2.641-4.5-3z"/><path fill="#b44463" d="M364.5 268.5a54.53 54.53 0 0 0-6.5 6l11.5-29.5-.5-1.5c-5.936 2.485-11.936 4.818-18 7 .747-2.476 2.081-4.809 4-7 .671-.752 1.504-1.086 2.5-1a189.7 189.7 0 0 1 22-5.5c-5.669 10.172-10.669 20.672-15 31.5z"/><path fill="#090809" d="M511.5 283.5c.131.739-.036 1.406-.5 2L489.5 264a1488.68 1488.68 0 0 1-42-11c-3.963-1.137-7.296-.303-10 2.5a1496.82 1496.82 0 0 0-47 22c-1.196-.346-1.196-.846 0-1.5a1063.94 1063.94 0 0 1 53-31.5l49 15 19 24z"/><path fill="#2a2d47" d="M472.5 299.5c9.468 3.285 19.135 5.452 29 6.5l-5-9 6-1a1037.42 1037.42 0 0 1-13-27.5 1014.25 1014.25 0 0 0-42-12.5c-3.317-.498-6.65-.665-10-.5 2.704-2.803 6.037-3.637 10-2.5a1488.68 1488.68 0 0 0 42 11l21.5 21.5c.464-.594.631-1.261.5-2a185.42 185.42 0 0 1 11 1c-.68-4.721-1.68-9.387-3-14l1-2c6.875 3.777 13.875 6.944 21 9.5-3.607-7.214-6.941-14.548-10-22a389.65 389.65 0 0 1 19 4 280.53 280.53 0 0 1-8-13.5c.06-.543.393-.876 1-1 3.762.808 7.262 2.142 10.5 4l16.5 28.5c-10.64 5.891-21.64 11.224-33 16l-19 27a1415.75 1415.75 0 0 1-46-21.5z"/><path fill="#bd4668" d="M359.5 279.5a585.29 585.29 0 0 0-8 26 306.26 306.26 0 0 1-11.5 31l-3.5-9c3.765-13.865 8.931-27.198 15.5-40 2.733-2.562 5.233-5.229 7.5-8z"/><path fill="#100d0a" d="M455.5 293.5c1.052-.149 2.052.017 3 .5-10.174 5.837-20.674 11.004-31.5 15.5-9.634-2.767-19.134-5.934-28.5-9.5 8.808 1.226 17.642 2.726 26.5 4.5 10.576-2.801 20.742-6.467 30.5-11z"/><path fill="#181a35" d="M565.5 365.5c-2.177-9.041-4.51-18.041-7-27-1.649 1.148-3.149 2.481-4.5 4l-15.5-25a265.06 265.06 0 0 1-16 22l-52-28.5c-1.667-.667-3.333-.667-5 0-4.073 2.191-8.406 3.691-13 4.5l16-8 52.5 26c6.029-7.194 11.863-14.527 17.5-22l24 19a212.07 212.07 0 0 1 7.5 18 64.22 64.22 0 0 1 0 16c-1.356.88-2.856 1.214-4.5 1z"/><path fill="#2b2e48" d="M565.5 365.5c-10.867 1.004-21.701 2.337-32.5 4l-42.5-17c-9.115 4.892-18.448 9.225-28 13v-4l27.5-11 44.5 16.5-37-27c-8.748-.154-17.414.679-26 2.5-4.333-9.168-10.666-16.668-19-22.5a32.46 32.46 0 0 0-8-.5c2.349-1.841 5.015-3.174 8-4 4.594-.809 8.927-2.309 13-4.5 1.667-.667 3.333-.667 5 0a1954.37 1954.37 0 0 0 52 28.5 265.06 265.06 0 0 0 16-22l15.5 25c1.351-1.519 2.851-2.852 4.5-4 2.49 8.959 4.823 17.959 7 27z"/><path fill="#161936" d="M624.5 314.5l12.5 23c.667 3.333.667 6.667 0 10a301.92 301.92 0 0 0-11 32l3-26c-2.759 4.517-5.259 9.183-7.5 14-1.15-3.247-1.983-6.58-2.5-10-.667-1.333-1.333-1.333-2 0a97.11 97.11 0 0 1-7.5 17 103.08 103.08 0 0 1-5.5-13l-6 10a740.59 740.59 0 0 0-11-28c-.586-3.229-.086-6.229 1.5-9a84.9 84.9 0 0 0 13-.5 83.46 83.46 0 0 1 7.5-15.5l11 9c1.407-4.388 2.907-8.721 4.5-13z"/><path fill="#a3c7e3" d="M444.5 319.5a32.46 32.46 0 0 1 8 .5c8.334 5.832 14.667 13.332 19 22.5-3.766 5.87-6.766 12.203-9 19v4c-3.079 2.045-6.412 3.878-10 5.5-8.667.667-17.333.667-26 0a1397.49 1397.49 0 0 0-38-23.5c-1.932 1.02-3.932 1.187-6 .5 3.535-1.574 7.202-2.241 11-2 6.285 4.438 13.118 7.938 20.5 10.5l1.5-1a197.94 197.94 0 0 0-8-17 59.19 59.19 0 0 0-6-12 74.7 74.7 0 0 1 16-3c9.424.984 18.424-.35 27-4z"/><path fill="#be486a" d="M417.5 323.5a74.7 74.7 0 0 0-16 3 59.19 59.19 0 0 1 6 12l-27-3c-.591-5.033.409-9.7 3-14 11.518-.644 22.851.023 34 2z"/><path fill="#08090a" d="M462.5 361.5c2.234-6.797 5.234-13.13 9-19 8.586-1.821 17.252-2.654 26-2.5l37 27-44.5-16.5-27.5 11z"/><path fill="#b44363" d="M345.5 339.5c1.956 5.867 3.29 11.867 4 18-.346 2.205-1.013 2.372-2 .5a81.04 81.04 0 0 0-3.5-9.5c-.781-3.317-.281-6.317 1.5-9z"/><path fill="#bae9d7" d="M396.5 363.5c-3.568 4.791-6.902 9.791-10 15-1.439-6.137-2.439-12.47-3-19 5.029-.638 9.363.695 13 4z"/><path fill="#c44c6e" d="M396.5 363.5c3.651 1.159 6.985 2.826 10 5-5.847 10.374-12.181 20.374-19 30a553.65 553.65 0 0 1-1-20c3.098-5.209 6.432-10.209 10-15z"/><path fill="#c24b6d" d="M489.5 363.5c-6.404 11.139-13.071 22.139-20 33-3.368-4.069-5.701-8.736-7-14l7-12c6.434-2.878 13.101-5.212 20-7z"/><path fill="#bce4d4" d="M489.5 363.5c1.653.16 2.986.826 4 2l-22 34c-1.406-.473-2.073-1.473-2-3 6.929-10.861 13.596-21.861 20-33z"/><path fill="#c24f6e" d="M493.5 365.5a12.18 12.18 0 0 1 5 3l-23 38c-2.442-1.621-3.775-3.954-4-7l22-34z"/><path fill="#c2f4e1" d="M498.5 368.5c10.133 4.072 20.467 7.406 31 10a561.28 561.28 0 0 0-5.5 18c-11.811 5.904-23.144 12.57-34 20-6.33-1.242-11.163-4.575-14.5-10l23-38z"/><path fill="#b9dacc" d="M406.5 368.5c1.109.057 2.109.39 3 1l-21 32c-.904-.709-1.237-1.709-1-3 6.819-9.626 13.153-19.626 19-30z"/><path fill="#c24d6d" d="M409.5 369.5c2.504 1.084 4.837 2.417 7 4a503.15 503.15 0 0 0-23 36c-1.51 1.228-3.01 1.228-4.5 0a32.46 32.46 0 0 1-.5-8l21-32z"/><path fill="#b4e1cf" d="M469.5 370.5l-7 12c-1.559-2.108-2.892-4.441-4-7 3.404-2.246 7.071-3.912 11-5z"/><path fill="#bdebd8" d="M416.5 373.5c1.846-.278 3.18.389 4 2-3.097 8.86-7.263 17.193-12.5 25-3.458 5.304-8.291 8.304-14.5 9a503.15 503.15 0 0 1 23-36z"/><path fill="#a3c8e3" d="M493.5 422.5c5.783 3.949 10.783 8.782 15 14.5l-11 27.5c-6.487 2.821-12.82 5.821-19 9h-75l-5-41.5c0-6.495 1.333-12.662 4-18.5l16-4c.888-8.218 2.721-16.218 5.5-24 10.679-9.447 21.179-9.281 31.5.5l6 25a261.57 261.57 0 0 0 32 11.5z"/><path fill="#171a35" d="M568.5 416.5c-1.166-7.929-2.666-15.929-4.5-24l-24-8-7.5 23c-11.228 5.301-22.895 9.634-35 13 10.736-5.032 21.736-9.698 33-14a277.04 277.04 0 0 0 5-26h34a1137.23 1137.23 0 0 1-1 36z"/><path fill="#2b2e49" d="M568.5 416.5c.33 7.032-.003 14.032-1 21-14.094 8.137-28.761 14.804-44 20l-6 30.5a553.55 553.55 0 0 1-39-14.5c6.18-3.179 12.513-6.179 19-9l11-27.5c-4.217-5.718-9.217-10.551-15-14.5 1.014-1.174 2.347-1.84 4-2 12.105-3.366 23.772-7.699 35-13l7.5-23 24 8c1.834 8.071 3.334 16.071 4.5 24z"/><path fill="#090a0b" d="M438.5 402.5c.543.06.876.393 1 1-2.763 10.578-5.096 21.244-7 32a98.43 98.43 0 0 1 14 .5l12 10-2 8.5-23 7.5a242.43 242.43 0 0 1-22 .5l1.5-21a201.32 201.32 0 0 0 25.5-39z"/><path fill="#161935" d="M590.5 409.5c1.967 1.804 3.801 3.804 5.5 6 .583-1.502 1.416-2.835 2.5-4a42.64 42.64 0 0 0 8 3.5c.229 6.284-.937 12.451-3.5 18.5l-1-4c-2.904 8.331-4.237 16.998-4 26-3.611 6.762-7.777 13.096-12.5 19a20.2 20.2 0 0 1-1.5-6l-11 11-1-4-10.5 10.5c-1.535-.661-3.202-.994-5-1L544 497.5l3-8c-4.035 3.7-7.702 7.7-11 12 2.4-9.968 5.067-19.968 8-30a1046.15 1046.15 0 0 1 26.5-15.5l-2-1 13-8.5 2-12.5-1.5-1.5c-.877-6.749-.544-13.416 1-20a54.63 54.63 0 0 1 2 7c2.619-2.906 4.453-6.239 5.5-10z"/><path fill="#c14a6b" d="M402.5 413.5c-2.667 5.838-4 12.005-4 18.5l5 41.5a82.93 82.93 0 0 1-6.5 9l-7.5-65.5c4.059-2.014 8.392-3.181 13-3.5z"/><path fill="#be4769" d="M374.5 487.5c1.54 2.338 2.206 5.005 2 8-28.145 8.326-56.145 17.159-84 26.5L225 628.5 187.5 740l16 91.5c-9.472 5.399-19.472 9.732-30 13a506.45 506.45 0 0 1 27-13l1-2.5-17-89A3884.35 3884.35 0 0 1 222 624.5L288.5 514l86-26.5z" opacity=".993"/><path fill="#a0c3de" d="M403.5 525.5v-8c1.706-4.466 5.039-6.132 10-5l64 2.5c3.55 3.883 6.717 8.049 9.5 12.5.654 1.196 1.154 1.196 1.5 0-2.573-6.225-5.24-12.392-8-18.5l-77-.5v-6c25.83-1.163 51.83-1.33 78-.5l10.5 10.5a84.69 84.69 0 0 1 .5 28l-17-13.5-60-3.5c-4.123.044-8.123.711-12 2z"/><path fill="#b44565" d="M403.5 502.5v6c-1.475 7.371-2.808 7.538-4 .5-.102-3.062 1.231-5.229 4-6.5z"/><path fill="#bb4869" d="M403.5 517.5v8c-.283.789-.783 1.456-1.5 2a20.49 20.49 0 0 1 0-9c.383-.556.883-.889 1.5-1z"/><path fill="#2c2f48" d="M466.5 676.5l62-37.5c2.792-9.583 4.458-19.416 5-29.5.617-.111 1.117-.444 1.5-1a1387.17 1387.17 0 0 1 14.5-62.5c-.145-.772-.478-1.439-1-2l27-20.5 7 54-39.5 71-68.5 30.5c-3.146.589-5.812-.245-8-2.5z"/><path fill="#2d314b" d="M533.5 609.5l-12-27c-3.199-2.364-6.532-4.53-10-6.5l-88-3.5c-2.014-.108-3.68.558-5 2v-8a2200.55 2200.55 0 0 0 95 4.5 354.31 354.31 0 0 1 18-13.5 1000.24 1000.24 0 0 1 2 52z"/><path fill="#bd4a6c" d="M423.5 572.5c-1.828 12.611-2.661 25.278-2.5 38a1446.29 1446.29 0 0 0 12.5 48c-2.055-1.448-4.222-2.781-6.5-4l-10-41a221.18 221.18 0 0 1 1.5-39c1.32-1.442 2.986-2.108 5-2z"/><path fill="#a5c9e5" d="M423.5 572.5l88 3.5c3.468 1.97 6.801 4.136 10 6.5l12 27c-.542 10.084-2.208 19.917-5 29.5l-62 37.5c-11.133-5.734-22.133-11.734-33-18a1446.29 1446.29 0 0 1-12.5-48c-.161-12.722.672-25.389 2.5-38z"/><path fill="#31374e" d="M474.5 608.5a.91.91 0 0 0-.5-1c-1.392 2.894-3.559 4.894-6.5 6l-16-2.5c-2.347-3.587-5.013-6.754-8-9.5-1.675-1.679-2.508-3.679-2.5-6 3.869 3.534 7.369 7.367 10.5 11.5l13 1.5c2.729.205 5.062-.628 7-2.5 10.659-11.522 11.659-10.689 3 2.5z"/><path fill="#171b1d" d="M443.5 601.5c2.987 2.746 5.653 5.913 8 9.5l16 2.5c2.941-1.106 5.108-3.106 6.5-6a.91.91 0 0 1 .5 1l-3 6a88.74 88.74 0 0 1-23 .5c-2.373-4.244-4.039-8.744-5-13.5z"/><path fill="#2c2e47" d="M486.5 861.5c9.166-8.33 18.499-16.497 28-24.5 3.41-3.071 6.41-6.404 9-10l-15-101c4.573-12.809 8.906-25.642 13-38.5l-31 1a1394.77 1394.77 0 0 0 47-18.5c1.135-.749 2.135-.583 3 .5a478.27 478.27 0 0 0-15 53 3399.33 3399.33 0 0 1 9.5 110L488.5 862c-.937.692-1.603.525-2-.5z"/><path fill="#bc4862" d="M456.5 690.5a284.33 284.33 0 0 0-33-1.5c4.643 10.934 9.477 21.767 14.5 32.5 1.492 7.936 2.492 15.936 3 24l16 51c.667 2 .667 4 0 6-2.661 7.312-4.494 14.812-5.5 22.5a1112.51 1112.51 0 0 1 6 49.5h3c-1.419.951-3.085 1.284-5 1l-7-51.5c.654-5.938 1.821-11.772 3.5-17.5a36.23 36.23 0 0 0 0-12l-13-44-3-27c-10.191-16.731-19.524-33.731-28-51l48.5 18z"/><path fill="#fc9100" d="M486.5 861.5c-7.377 7.074-16.043 11.408-26 13h-3a1112.51 1112.51 0 0 0-6-49.5c1.006-7.688 2.839-15.188 5.5-22.5.667-2 .667-4 0-6l-16-51c-.508-8.064-1.508-16.064-3-24-5.023-10.733-9.857-21.566-14.5-32.5a284.33 284.33 0 0 1 33 1.5c4.74 1.635 9.573 2.968 14.5 4 6.643-1.574 13.143-3.574 19.5-6l31-1c-4.094 12.858-8.427 25.691-13 38.5l15 101c-2.59 3.596-5.59 6.929-9 10-9.501 8.003-18.834 16.17-28 24.5z"/><path fill="#783049" d="M173.5 844.5c-1.926 1.793-4.259 2.793-7 3 1.926-1.793 4.259-2.793 7-3z" opacity=".792"/></svg>