<?xml version="1.0" encoding="UTF-8" standalone="no"?>
<!DOCTYPE svg PUBLIC "-//W3C//DTD SVG 1.1//EN" "http://www.w3.org/Graphics/SVG/1.1/DTD/svg11.dtd">
<svg width="100%" height="100%" viewBox="0 0 5000 5000" version="1.1" xmlns="http://www.w3.org/2000/svg" xmlns:xlink="http://www.w3.org/1999/xlink" xml:space="preserve" xmlns:serif="http://www.serif.com/" style="fill-rule:evenodd;clip-rule:evenodd;stroke-linecap:square;stroke-miterlimit:1.5;">
    <rect x="0" y="0" width="5000" height="5000" style="fill:rgb(45,50,74);"/>
    <g>
        <g transform="matrix(1,0,0,1,4.11139,18.5012)">
            <path d="M1842.19,1985.63L1876.71,2171.23L1960.07,2202.87L2036.69,1985.63L1946.6,1863.53L1842.19,1985.63Z" style="fill:rgb(59,37,32);"/>
            <path d="M1842.19,1985.63L1876.71,2171.23L1960.07,2202.87L2036.69,1985.63L1946.6,1863.53L1842.19,1985.63ZM1881.71,1996.22L1944.47,1922.83C1944.47,1922.83 1995.36,1991.8 1995.36,1991.8C1995.36,1991.8 1937.83,2154.93 1937.83,2154.93C1937.83,2154.93 1909.22,2144.07 1909.22,2144.07L1881.71,1996.22Z" style="fill:rgb(27,27,27);"/>
        </g>
        <g transform="matrix(1,0,0,1.58495,0,-1462.96)">
            <path d="M2140.4,2961.5C2140.4,2961.5 2010,2887.3 1914.7,2833.07C1855.91,2799.61 1833.51,2800.67 1858.82,2750.53C1858.82,2750.53 1858.82,2750.53 1858.82,2750.53C1868.61,2731.14 1889.19,2658.43 1915.84,2649.97C1957.03,2636.89 2305.28,2526.72 2500,2526.72C2694.72,2526.72 3042.95,2636.88 3084.14,2649.97C3110.8,2658.43 3131.4,2731.15 3141.19,2750.54C3141.19,2750.54 3141.19,2750.54 3141.19,2750.54C3166.05,2799.8 3140.43,2797.68 3078.89,2826.95C2964.16,2881.53 2796.02,2961.5 2796.02,2961.5" style="fill:rgb(255,148,0);"/>
            <clipPath id="_clip1">
                <path d="M2140.4,2961.5C2140.4,2961.5 2010,2887.3 1914.7,2833.07C1855.91,2799.61 1833.51,2800.67 1858.82,2750.53C1858.82,2750.53 1858.82,2750.53 1858.82,2750.53C1868.61,2731.14 1889.19,2658.43 1915.84,2649.97C1957.03,2636.89 2305.28,2526.72 2500,2526.72C2694.72,2526.72 3042.95,2636.88 3084.14,2649.97C3110.8,2658.43 3131.4,2731.15 3141.19,2750.54C3141.19,2750.54 3141.19,2750.54 3141.19,2750.54C3166.05,2799.8 3140.43,2797.68 3078.89,2826.95C2964.16,2881.53 2796.02,2961.5 2796.02,2961.5"/>
            </clipPath>
            <g clip-path="url(#_clip1)">
                <g transform="matrix(1,0,0,0.630934,2.55795e-13,923.033)">
                    <path d="M1898.43,2886.32C1898.43,2886.32 1924.47,2769.23 1937.05,2762.04C1949.62,2754.86 2129.25,2678.51 2129.25,2678.51" style="fill:none;stroke:rgb(201,75,111);stroke-width:53.96px;"/>
                </g>
            </g>
            <path d="M2140.4,2961.5C2140.4,2961.5 2010,2887.3 1914.7,2833.07C1855.91,2799.61 1833.51,2800.67 1858.82,2750.53C1858.82,2750.53 1858.82,2750.53 1858.82,2750.53C1868.61,2731.14 1889.19,2658.43 1915.84,2649.97C1957.03,2636.89 2305.28,2526.72 2500,2526.72C2694.72,2526.72 3042.95,2636.88 3084.14,2649.97C3110.8,2658.43 3131.4,2731.15 3141.19,2750.54C3141.19,2750.54 3141.19,2750.54 3141.19,2750.54C3166.05,2799.8 3140.43,2797.68 3078.89,2826.95C2964.16,2881.53 2796.02,2961.5 2796.02,2961.5" style="fill:none;stroke:rgb(27,27,27);stroke-width:54.42px;stroke-linecap:round;stroke-linejoin:round;"/>
        </g>
        <g transform="matrix(1,0,0,1,0,-299.788)">
            <g transform="matrix(0.875412,0,0,1,314.296,0)">
                <g transform="matrix(1,0,0,1,-14.9895,55.6754)">
                    <path d="M3021.4,2342.1C3021.4,2342.1 3102.64,2332.64 3170.36,2324.74C3194.28,2321.96 3218.43,2328.21 3236.78,2341.94C3255.12,2355.67 3265.92,2375.58 3266.49,2396.7C3269.8,2525.26 3245.69,2745.97 3021.4,2616.2C2984.92,2595.09 3021.4,2342.1 3021.4,2342.1Z" style="fill:rgb(167,204,232);"/>
                    <clipPath id="_clip2">
                        <path d="M3021.4,2342.1C3021.4,2342.1 3102.64,2332.64 3170.36,2324.74C3194.28,2321.96 3218.43,2328.21 3236.78,2341.94C3255.12,2355.67 3265.92,2375.58 3266.49,2396.7C3269.8,2525.26 3245.69,2745.97 3021.4,2616.2C2984.92,2595.09 3021.4,2342.1 3021.4,2342.1Z"/>
                    </clipPath>
                    <g clip-path="url(#_clip2)">
                        <g transform="matrix(1.093,0,0,1,-227.786,238.741)">
                            <path d="M3064.29,2114.38L3055.87,2232.26C3055.87,2232.26 3195.65,2295.41 3135.02,2366.98C3106.4,2400.77 3149.97,2391.57 3171.71,2352.45C3196.03,2308.69 3200.7,2232.26 3200.7,2232.26L3188.07,2134.59L3119.14,2084.87L3064.29,2114.38Z" style="fill:rgb(159,124,199);"/>
                        </g>
                    </g>
                    <path d="M3021.4,2342.1C3021.4,2342.1 3102.64,2332.64 3170.36,2324.74C3194.28,2321.96 3218.43,2328.21 3236.78,2341.94C3255.12,2355.67 3265.92,2375.58 3266.49,2396.7C3269.8,2525.26 3245.69,2745.97 3021.4,2616.2C2984.92,2595.09 3021.4,2342.1 3021.4,2342.1Z" style="fill:none;stroke:rgb(27,27,27);stroke-width:65.14px;stroke-linecap:round;stroke-linejoin:round;"/>
                </g>
                <g transform="matrix(-1,0,0,1,5008.53,55.6754)">
                    <path d="M3021.4,2342.1C3021.4,2342.1 3102.64,2332.64 3170.36,2324.74C3194.28,2321.96 3218.43,2328.21 3236.78,2341.94C3255.12,2355.67 3265.92,2375.58 3266.49,2396.7C3269.8,2525.26 3245.69,2745.97 3021.4,2616.2C2984.92,2595.09 3021.4,2342.1 3021.4,2342.1Z" style="fill:rgb(167,204,232);"/>
                    <clipPath id="_clip3">
                        <path d="M3021.4,2342.1C3021.4,2342.1 3102.64,2332.64 3170.36,2324.74C3194.28,2321.96 3218.43,2328.21 3236.78,2341.94C3255.12,2355.67 3265.92,2375.58 3266.49,2396.7C3269.8,2525.26 3245.69,2745.97 3021.4,2616.2C2984.92,2595.09 3021.4,2342.1 3021.4,2342.1Z"/>
                    </clipPath>
                    <g clip-path="url(#_clip3)">
                        <g transform="matrix(1.093,0,0,1,-227.786,238.741)">
                            <path d="M3064.29,2114.38L3055.87,2232.26C3055.87,2232.26 3195.65,2295.41 3135.02,2366.98C3106.4,2400.77 3149.97,2391.57 3171.71,2352.45C3196.03,2308.69 3200.7,2232.26 3200.7,2232.26L3188.07,2134.59L3135.02,2084.87L3064.29,2114.38Z" style="fill:rgb(159,124,199);"/>
                        </g>
                        <g transform="matrix(-1.093,0,0,1,5244.27,244.113)">
                            <path d="M1853.14,2087.04C1840.95,2109.88 1834.92,2159.31 1843.11,2254.68C1854.65,2388.98 1951.32,2378.91 1951.32,2378.91" style="fill:none;stroke:rgb(201,75,111);stroke-width:41.44px;"/>
                        </g>
                    </g>
                    <path d="M3021.4,2342.1C3021.4,2342.1 3102.64,2332.64 3170.36,2324.74C3194.28,2321.96 3218.43,2328.21 3236.78,2341.94C3255.12,2355.67 3265.92,2375.58 3266.49,2396.7C3269.8,2525.26 3245.69,2745.97 3021.4,2616.2C2984.92,2595.09 3021.4,2342.1 3021.4,2342.1Z" style="fill:none;stroke:rgb(27,27,27);stroke-width:65.14px;stroke-linecap:round;stroke-linejoin:round;"/>
                </g>
            </g>
            <g transform="matrix(1,0,0,0.940603,0,166.031)">
                <path d="M1636.49,3458.26L1964.11,3180.73L2143.99,3088.6L2126.86,2875.8L2863.49,2795.29L2863.49,3103.74L3326.45,3403.01L3363.51,3511.92L3021.4,3727.6L2500,3920.09L2143.99,3807.72L1636.49,3458.26Z" style="fill:rgb(167,204,232);stroke:black;stroke-width:1.03px;stroke-linecap:round;stroke-linejoin:round;"/>
            </g>
            <g transform="matrix(1,0,0,1,0.415471,0)">
                <path d="M2580.84,3622.58C2580.84,3622.58 2917.65,3576.77 2965.61,3475.46C2966.84,3472.86 2919.36,3501.14 2859.38,3511.4C2755.73,3529.12 2613.72,3534.74 2613.72,3534.74L2580.84,3622.58Z" style="fill:rgb(227,118,125);"/>
                <g transform="matrix(-1,0,0,1,4999.17,0)">
                    <path d="M2580.84,3622.58C2580.84,3622.58 2917.65,3576.77 2965.61,3475.46C2966.84,3472.86 2919.36,3501.14 2859.38,3511.4C2755.73,3529.12 2613.72,3534.74 2613.72,3534.74L2580.84,3622.58Z" style="fill:rgb(227,118,125);"/>
                </g>
            </g>
            <g transform="matrix(1,0,0,1.09524,0,-275.863)">
                <path d="M1677.27,3485.87C1677.27,3485.87 2120.38,3172.22 2264.58,3397.46C2274.68,3413.24 2304.3,3398.97 2302.08,3391.68C2274.54,3301.44 2220.64,3150.62 2235.11,3110.12C2261.42,3036.45 2500,3247.48 2500,3247.48C2500,3247.48 2738.58,3036.45 2764.89,3110.12C2779.36,3150.62 2725.46,3301.44 2697.92,3391.68C2695.15,3400.76 2727.51,3409.81 2735.42,3397.46C2879.62,3172.22 3322.73,3485.87 3322.73,3485.87L3191.03,3280.91L2881.38,3110.12L2834,2896.48L2483.33,3110.12L2146.17,2927.79L2129.42,3140.27L2011.4,3162.25L1677.27,3360.88L1677.27,3485.87Z" style="fill:rgb(159,124,199);"/>
                <clipPath id="_clip4">
                    <path d="M1677.27,3485.87C1677.27,3485.87 2120.38,3172.22 2264.58,3397.46C2274.68,3413.24 2304.3,3398.97 2302.08,3391.68C2274.54,3301.44 2220.64,3150.62 2235.11,3110.12C2261.42,3036.45 2500,3247.48 2500,3247.48C2500,3247.48 2738.58,3036.45 2764.89,3110.12C2779.36,3150.62 2725.46,3301.44 2697.92,3391.68C2695.15,3400.76 2727.51,3409.81 2735.42,3397.46C2879.62,3172.22 3322.73,3485.87 3322.73,3485.87L3191.03,3280.91L2881.38,3110.12L2834,2896.48L2483.33,3110.12L2146.17,2927.79L2129.42,3140.27L2011.4,3162.25L1677.27,3360.88L1677.27,3485.87Z"/>
                </clipPath>
                <g clip-path="url(#_clip4)">
                    <g transform="matrix(1,0,0,1,-7.93244,299.788)">
                        <path d="M2178.97,2634.71C2178.97,2634.71 2170.19,2950.04 2201.76,3095.81" style="fill:none;stroke:rgb(201,75,111);stroke-width:54.92px;"/>
                    </g>
                </g>
            </g>
            <g transform="matrix(1,0,0,0.940603,64.7868,166.031)">
                <path d="M2053.88,2805.9C2053.88,2805.9 2046.86,2914.39 2048.1,3017.06C2048.77,3072.51 2051.88,3126.28 2059.48,3161.44C2066.18,3192.43 2082.44,3231.32 2101.61,3269.24C2138.45,3342.1 2185.16,3411.77 2185.16,3411.77C2191.87,3422.1 2205.2,3424.7 2214.92,3417.56C2224.64,3410.43 2227.08,3396.25 2220.38,3385.92C2220.38,3385.92 2177.36,3317.31 2143.95,3245.95C2128.09,3212.06 2114.37,3177.58 2109.29,3150.15C2103.27,3117.64 2102.26,3068.16 2103.14,3017.23C2104.89,2917 2114.89,2811.37 2114.89,2811.37C2116.31,2793.47 2103.79,2777.71 2086.96,2776.2C2070.12,2774.69 2055.3,2788 2053.88,2805.9Z" style="fill:rgb(27,27,27);"/>
                <g transform="matrix(-1,0,0,1,4870.43,0)">
                    <path d="M2114.89,2811.37C2114.89,2811.37 2104.89,2917 2103.14,3017.23C2102.26,3068.16 2103.27,3117.64 2109.29,3150.15C2114.37,3177.58 2128.09,3212.06 2143.95,3245.95C2177.36,3317.31 2220.38,3385.92 2220.38,3385.92C2227.08,3396.25 2224.64,3410.43 2214.92,3417.56C2205.2,3424.7 2191.87,3422.1 2185.16,3411.77C2185.16,3411.77 2138.45,3342.1 2101.61,3269.24C2082.44,3231.32 2066.18,3192.43 2059.48,3161.44C2051.88,3126.28 2048.77,3072.51 2048.1,3017.06C2046.86,2914.39 2053.88,2805.9 2053.88,2805.9C2055.3,2788 2070.12,2774.69 2086.96,2776.2C2103.79,2777.71 2116.31,2793.47 2114.89,2811.37Z" style="fill:rgb(27,27,27);"/>
                </g>
            </g>
            <g transform="matrix(1,0,0,1,24.2703,-56.1335)">
                <path d="M2554.41,3623.22L2590.61,3528.92C2590.61,3528.92 2859.22,3544.07 2941.73,3469.13" style="fill:none;stroke:rgb(27,27,27);stroke-width:50.33px;stroke-linecap:round;stroke-linejoin:round;"/>
                <g transform="matrix(-1,0,0,1,4951.46,0)">
                    <path d="M2554.41,3623.22L2590.61,3528.92C2590.61,3528.92 2859.22,3544.07 2941.73,3469.13" style="fill:none;stroke:rgb(27,27,27);stroke-width:50.33px;stroke-linecap:round;stroke-linejoin:round;"/>
                </g>
            </g>
            <g transform="matrix(1,0,0,1,31.6809,0)">
                <path d="M2468.32,1808.66C2479.43,1808.54 2490.02,1808.5 2500,1808.5C2505.21,1808.5 2510.25,1808.88 2515.15,1809.62C2705.45,1815.53 2986.68,1850.9 2988.9,2046.23C2990.75,2209.61 2988.9,2472.7 2988.9,2628.08C2988.9,2815.08 2592.37,3062.76 2502.74,3086.05C2501.67,3087.74 2500.75,3088.6 2500,3088.6C2489.02,3088.6 2478.03,3088.51 2468.32,3088.33C2458.61,3088.51 2447.62,3088.6 2436.64,3088.6C2435.89,3088.6 2434.97,3087.74 2433.9,3086.05C2344.27,3062.76 1947.74,2815.08 1947.74,2628.08C1947.74,2472.7 1945.89,2209.61 1947.74,2046.23C1949.96,1850.9 2231.19,1815.53 2421.49,1809.62C2426.38,1808.88 2431.43,1808.5 2436.64,1808.5C2446.62,1808.5 2457.2,1808.54 2468.32,1808.66Z" style="fill:rgb(167,204,232);"/>
                <clipPath id="_clip5">
                    <path d="M2468.32,1808.66C2479.43,1808.54 2490.02,1808.5 2500,1808.5C2505.21,1808.5 2510.25,1808.88 2515.15,1809.62C2705.45,1815.53 2986.68,1850.9 2988.9,2046.23C2990.75,2209.61 2988.9,2472.7 2988.9,2628.08C2988.9,2815.08 2592.37,3062.76 2502.74,3086.05C2501.67,3087.74 2500.75,3088.6 2500,3088.6C2489.02,3088.6 2478.03,3088.51 2468.32,3088.33C2458.61,3088.51 2447.62,3088.6 2436.64,3088.6C2435.89,3088.6 2434.97,3087.74 2433.9,3086.05C2344.27,3062.76 1947.74,2815.08 1947.74,2628.08C1947.74,2472.7 1945.89,2209.61 1947.74,2046.23C1949.96,1850.9 2231.19,1815.53 2421.49,1809.62C2426.38,1808.88 2431.43,1808.5 2436.64,1808.5C2446.62,1808.5 2457.2,1808.54 2468.32,1808.66Z"/>
                </clipPath>
                <g clip-path="url(#_clip5)">
                    <g transform="matrix(1,0,0,1,-31.6809,299.788)">
                        <path d="M2147.89,2028.56L2165.14,2075.51L2372.07,2075.51L2509.06,1986.41C2509.06,1986.41 2676.72,1959.59 2687.25,1936.59C2697.79,1913.6 2776.35,1999.82 2814.67,1986.41C2852.99,1973 2847.24,2095.32 2847.24,2095.32L2847.24,2281.48C2847.24,2281.48 2847.24,2416.56 2767.73,2460.63C2731.53,2480.69 2793.42,2503.74 2827.24,2479.84C2867.71,2451.25 2885.56,2372.49 2885.56,2372.49L3006.34,2212.23L2982.32,1986.41L2803.41,1771.82L2231,1878.39L2147.89,2028.56Z" style="fill:rgb(159,124,199);"/>
                    </g>
                    <g transform="matrix(1,0,0,1,-31.6809,299.788)">
                        <path d="M3021.4,2171.23L2948.7,2107.59L2930.39,2013.02L2839.94,1930.8L2613.81,1867.07L2778.26,1352.72L3214.07,1548.43L3306.58,1930.8L3068.93,2243.26L3021.4,2171.23Z" style="fill:rgb(44,47,74);"/>
                        <path d="M3021.4,2171.23L2948.7,2107.59L2930.39,2013.02L2839.94,1930.8L2613.81,1867.07L2778.26,1352.72L3214.07,1548.43L3306.58,1930.8L3068.93,2243.26L3021.4,2171.23ZM3069.47,2139.51L3065.19,2133.02L3001.49,2077.26C3001.49,2077.26 2983.29,1983.28 2983.29,1983.28L2868.63,1879.05L2686.82,1827.81C2717.98,1730.38 2781.35,1532.18 2813.49,1431.67C2909.61,1474.83 3096.49,1558.76 3164.74,1589.41C3164.74,1589.41 3244.17,1917.73 3244.17,1917.73C3209.05,1963.9 3125.98,2073.12 3072.26,2143.74C3072.26,2143.74 3069.47,2139.51 3069.47,2139.51Z" style="fill:rgb(27,27,27);"/>
                    </g>
                    <g transform="matrix(1,0,0,1,-31.6809,266.815)">
                        <path d="M2500,2919.28L1802.92,2486.51L2013.43,2230.2C2013.43,2230.2 2077.38,2321.81 2128.18,2394.57C2167.65,2451.11 2226.24,2491.46 2293.14,2508.18C2331.3,2517.71 2365.36,2526.22 2365.36,2526.22C2365.36,2526.22 2374.89,2514.73 2383.68,2504.11C2392.91,2492.96 2406.63,2486.51 2421.1,2486.51L2578.9,2486.51C2593.37,2486.51 2607.09,2492.96 2616.32,2504.11C2625.11,2514.73 2634.64,2526.22 2634.64,2526.22C2634.64,2526.22 2668.7,2517.71 2706.86,2508.18C2773.76,2491.46 2832.35,2451.11 2871.82,2394.57C2922.62,2321.81 2986.57,2230.2 2986.57,2230.2L3197.08,2486.51L2500,2919.28Z" style="fill:rgb(59,43,32);"/>
                        <clipPath id="_clip6">
                            <path d="M2500,2919.28L1802.92,2486.51L2013.43,2230.2C2013.43,2230.2 2077.38,2321.81 2128.18,2394.57C2167.65,2451.11 2226.24,2491.46 2293.14,2508.18C2331.3,2517.71 2365.36,2526.22 2365.36,2526.22C2365.36,2526.22 2374.89,2514.73 2383.68,2504.11C2392.91,2492.96 2406.63,2486.51 2421.1,2486.51L2578.9,2486.51C2593.37,2486.51 2607.09,2492.96 2616.32,2504.11C2625.11,2514.73 2634.64,2526.22 2634.64,2526.22C2634.64,2526.22 2668.7,2517.71 2706.86,2508.18C2773.76,2491.46 2832.35,2451.11 2871.82,2394.57C2922.62,2321.81 2986.57,2230.2 2986.57,2230.2L3197.08,2486.51L2500,2919.28Z"/>
                        </clipPath>
                        <g clip-path="url(#_clip6)">
                            <g transform="matrix(1,0,0,1,10.0545,32.9735)">
                                <path d="M2966.59,2245.54L2868.87,2392.56L2802.77,2449.09L2715.59,2527.64C2715.59,2527.64 2779.77,2531.76 2813.3,2500C2846.84,2468.24 2801.81,2530.52 2772.11,2565.96C2742.41,2601.41 2759.66,2646.44 2834.38,2580.33C2909.11,2514.23 2996.28,2423.22 2996.28,2423.22L2996.28,2268.02L2966.59,2245.54Z" style="fill:rgb(44,47,74);"/>
                            </g>
                            <g transform="matrix(1,0,0,1,5.68434e-14,32.9735)">
                                <path d="M2026.78,2245.78C2026.78,2245.78 2018.28,2402.9 2062.75,2449.5" style="fill:none;stroke:rgb(201,75,111);stroke-width:24.22px;stroke-linecap:round;"/>
                            </g>
                        </g>
                        <path d="M2500,2919.28L1802.92,2486.51L2013.43,2230.2C2013.43,2230.2 2077.38,2321.81 2128.18,2394.57C2167.65,2451.11 2226.24,2491.46 2293.14,2508.18C2331.3,2517.71 2365.36,2526.22 2365.36,2526.22C2365.36,2526.22 2374.89,2514.73 2383.68,2504.11C2392.91,2492.96 2406.63,2486.51 2421.1,2486.51L2578.9,2486.51C2593.37,2486.51 2607.09,2492.96 2616.32,2504.11C2625.11,2514.73 2634.64,2526.22 2634.64,2526.22C2634.64,2526.22 2668.7,2517.71 2706.86,2508.18C2773.76,2491.46 2832.35,2451.11 2871.82,2394.57C2922.62,2321.81 2986.57,2230.2 2986.57,2230.2L3197.08,2486.51L2500,2919.28ZM2500,2877.95C2500,2877.95 1992.99,2563.19 1855.49,2477.82C1855.49,2477.82 2011.16,2288.28 2011.16,2288.28C2011.16,2288.28 2099.39,2414.67 2099.39,2414.67C2143.72,2478.16 2209.51,2523.47 2284.63,2542.24L2378.3,2565.64L2410.72,2526.5C2413.28,2523.41 2417.09,2521.62 2421.1,2521.62L2578.9,2521.62C2582.91,2521.62 2586.72,2523.41 2589.28,2526.5C2589.28,2526.5 2621.7,2565.64 2621.7,2565.64L2715.37,2542.24C2790.49,2523.47 2856.28,2478.16 2900.61,2414.67C2900.61,2414.67 2988.84,2288.28 2988.84,2288.28C2988.84,2288.28 3144.51,2477.82 3144.51,2477.82C3144.51,2477.82 2500,2877.95 2500,2877.95L2500,2877.95Z" style="fill:rgb(27,27,27);"/>
                    </g>
                </g>
                <path d="M2468.32,1808.66C2479.43,1808.54 2490.02,1808.5 2500,1808.5C2505.21,1808.5 2510.25,1808.88 2515.15,1809.62C2705.45,1815.53 2986.68,1850.9 2988.9,2046.23C2990.75,2209.61 2988.9,2472.7 2988.9,2628.08C2988.9,2815.08 2592.37,3062.76 2502.74,3086.05C2501.67,3087.74 2500.75,3088.6 2500,3088.6C2489.02,3088.6 2478.03,3088.51 2468.32,3088.33C2458.61,3088.51 2447.62,3088.6 2436.64,3088.6C2435.89,3088.6 2434.97,3087.74 2433.9,3086.05C2344.27,3062.76 1947.74,2815.08 1947.74,2628.08C1947.74,2472.7 1945.89,2209.61 1947.74,2046.23C1949.96,1850.9 2231.19,1815.53 2421.49,1809.62C2426.38,1808.88 2431.43,1808.5 2436.64,1808.5C2446.62,1808.5 2457.2,1808.54 2468.32,1808.66Z" style="fill:none;stroke:rgb(27,27,27);stroke-width:97.52px;stroke-linecap:round;stroke-linejoin:round;"/>
            </g>
            <g transform="matrix(1,0,0,0.940603,0,166.031)">
                <path d="M2118.8,3103.74C2118.8,3103.74 1507.23,3419.01 1661.41,3514.09C1815.59,3609.17 2220.47,3920.09 2500,3920.09C2779.53,3920.09 3184.41,3609.17 3338.59,3514.09C3492.77,3419.01 2881.2,3103.74 2881.2,3103.74" style="fill:none;"/>
                <clipPath id="_clip7">
                    <path d="M2118.8,3103.74C2118.8,3103.74 1507.23,3419.01 1661.41,3514.09C1815.59,3609.17 2220.47,3920.09 2500,3920.09C2779.53,3920.09 3184.41,3609.17 3338.59,3514.09C3492.77,3419.01 2881.2,3103.74 2881.2,3103.74"/>
                </clipPath>
                <g clip-path="url(#_clip7)">
                    <g transform="matrix(1,0,0,1,2.27374e-13,299.788)">
                        <path d="M2500,3831.24L1609.55,3718.17L1348.47,3218.63L1541.71,2719.13L2125.53,2788.82C2125.53,2788.82 2107.03,2992.51 2146.09,3072.68C2185.14,3152.85 2500,3327.84 2500,3327.84C2500,3327.84 2814.86,3152.85 2853.91,3072.68C2892.97,2992.51 2874.47,2788.82 2874.47,2788.82L3458.29,2719.13L3651.53,3218.63L3390.45,3718.17L2500,3831.24Z" style="fill:rgb(255,148,0);"/>
                        <clipPath id="_clip8">
                            <path d="M2500,3831.24L1609.55,3718.17L1348.47,3218.63L1541.71,2719.13L2125.53,2788.82C2125.53,2788.82 2107.03,2992.51 2146.09,3072.68C2185.14,3152.85 2500,3327.84 2500,3327.84C2500,3327.84 2814.86,3152.85 2853.91,3072.68C2892.97,2992.51 2874.47,2788.82 2874.47,2788.82L3458.29,2719.13L3651.53,3218.63L3390.45,3718.17L2500,3831.24Z"/>
                        </clipPath>
                        <g clip-path="url(#_clip8)">
                            <g transform="matrix(2.1657,0,0,2.30245,1888.73,3020.83)">
                                <path d="M193.4,107.4C189.6,115.8 181.3,141 177.5,155.8C172.4,175.5 169.1,195.9 165.5,228.9L164.8,235.2L170.6,231.4C208.3,207.3 223.7,197.6 225,197.3C226.1,197 231.4,201.9 241,211.9C248.9,220.2 255.5,226.9 255.7,226.6C255.9,226.4 255.6,224.2 254.9,221.7C253.9,217.6 254,216.7 255.9,213.6C258.2,209.9 271.9,196.6 272.6,197.3C272.9,197.6 272.1,199.6 271,201.9C268.2,207.2 267.5,212.8 268.9,217.3C270.1,220.7 270.3,220.9 273.3,220.2C277.4,219.3 286.6,219.3 290.6,220.2C293.3,220.8 293.9,220.5 294.9,218.4C296.9,213.9 296.2,207.6 293,201.5C290.8,197.4 290.5,196.1 291.7,197.1C299.4,203.1 302.7,206.2 306.2,210.9C310.3,216.3 310.3,216.4 309.3,221.4C308.7,224.2 308.3,226.6 308.4,226.7C308.8,227.1 335.3,200.2 336.3,198.5C336.7,197.7 337.7,197 338.4,197C339.1,197 345,200.4 351.6,204.6C399.8,235.6 399,235.1 399,232.1C399,230.6 398.1,222 397,212.9C391.8,170.6 387.3,152.5 370.5,105.5L369.8,103.5L371.5,105.5C374.1,108.6 389.3,140.3 394.3,153C406.3,183.5 410.7,199.2 415.9,230C419.2,249.9 420.6,262 419.5,262C418.8,262 397,248 365.1,227.2C358.8,223.1 350.5,217.8 346.7,215.3L339.6,210.8L327.3,223.6C315.2,236.2 312.1,240 313.8,240C314.2,240 320.2,236.6 327.1,232.5C333.9,228.4 340.1,225 340.8,225C342.3,225 359.8,237.3 395.5,263.5C437,293.9 443.1,298.2 443.5,297.8C443.8,297.6 444.3,286.6 444.6,273.4C445.9,226.6 441.6,181.6 432.9,150C429.6,138.1 429.7,137 433.4,144.6C445.3,169.4 454.7,207.1 459.4,249C464.5,293.9 465.4,334.7 461.3,333.8C460.6,333.6 449.5,325.1 436.7,314.8C424,304.5 397.6,283.3 378.1,267.6C358.6,252 341.9,238.9 340.8,238.7C339.3,238.3 318,247.7 316.1,249.6C314.7,250.9 317.9,250.9 327.4,249.4C336.8,247.9 338.3,247.9 339.8,249.2C341.8,251 394,296.7 408.4,309.4C427.5,326.2 465.5,360.8 468.6,364.1L471.8,367.5L470.5,379C465,427.3 453.3,477.1 439.5,511.1C434.3,523.9 423.5,545.5 417.2,555.9C412.4,563.9 401.3,579.7 400,580.5C399.6,580.7 401.9,575.7 405.1,569.2C418.2,542.6 429.5,509.5 435.4,480.5C440.9,453.4 443,431.6 443,401.5C443,377.2 443.7,379.4 431.4,366C427,361.3 414.9,348 404.4,336.5C393.9,324.9 383.8,313.9 382,312C380.3,310.1 370.6,299.3 360.7,288C350.7,276.8 340.7,265.6 338.4,263.2L334.4,258.8L324.2,259.5C318.6,259.9 314,260.5 314,260.9C314,261.3 317.7,262.9 322.2,264.5L330.3,267.5L346.2,292.5C354.9,306.2 364.7,321.8 367.9,327C371.1,332.2 382.4,350.2 392.9,367C403.4,383.7 412,398.3 412,399.5C411.9,403.3 409.1,426.5 406.5,444.5C400.1,488.8 384.7,542.9 366.3,585.3C358,604.6 334.1,652.3 334,649.8C334,649.4 334.9,646.7 336.1,643.8C348.9,611.7 364.4,558.8 373.5,517.2C380.1,486.7 385,442.6 385,414L385,402.5L371.2,374C363.6,358.3 353.8,338.1 349.4,329C345.1,320 337.5,304.4 332.5,294.5C324,277.5 323.2,276.3 318.6,273.3C315.4,271.2 313.2,270.4 312.5,271C311.9,271.5 310.4,274.4 309.1,277.5L306.8,283.1L313.2,292.8C323.5,308.3 323.4,307.8 322.7,320C321.5,339.8 313.7,380 305.8,407C302.3,418.7 295.4,438.6 294.3,440C294.1,440.2 292.9,439.2 291.7,437.8C286.1,431.1 276.8,431.5 271.6,438.6C270,440.8 270.5,441.7 265,427C254.8,399.5 243,345.2 241.4,318.6L240.8,308.5L249.2,295.7L257.7,282.8L254.8,276.7C253.1,273.3 251.6,270.3 251.4,270.1C251.2,269.9 248.6,271.3 245.5,273.3C240.3,276.8 239.7,277.7 233.1,291.3C229.3,299.1 215.6,327.5 202.5,354.5L178.8,403.5L179.4,421C181,465.4 185.7,498.7 197,544C204.8,575.3 221.1,627.1 228.5,644.4C229.4,646.5 229.9,648.4 229.7,648.7C229,649.3 213.1,618.7 204.8,600.8C190.5,569.8 183.9,552.1 174.5,519.1C163.6,480.9 159,458.4 154.5,420.2L151.8,398L177,357.8C190.9,335.6 209.5,306.1 218.3,292.3L234.3,267L242.2,264.4C246.5,263 250,261.5 250,261.1C250,260.3 239.5,259 232.8,259C229.4,259 228.5,259.7 220.3,269.2C203.8,288.3 173.7,321.8 158.4,338C155,341.6 145.5,352 137.3,361.2C125,374.8 122.2,378.6 121.7,381.7C121.3,383.8 121,393.1 121,402.5C121,459.6 134.3,518.4 158.1,566.9C161.8,574.4 164.7,580.6 164.5,580.8C163.9,581.4 151.9,564 146,554.1C129.2,525.8 116.3,493.1 107.5,456.5C101.2,430.4 94.9,393.8 93.4,374.5L92.7,366.4L103.6,356.3C109.6,350.8 119.3,342 125.1,336.9C130.9,331.7 141.7,322.1 149.1,315.5C156.5,308.8 175.6,292 191.5,278.1C207.5,264.1 221.7,251.6 223.2,250.2C225.8,247.8 226,247.8 234.2,248.9C238.8,249.5 243.7,250.3 245.3,250.6C250.7,251.7 247.8,249.1 238.8,244.7C224.4,237.6 224.7,237.7 220.3,240.7C218.2,242.1 203.3,253.9 187.1,266.9C171,279.9 145.6,300.3 130.7,312.2C115.8,324.2 103.1,334 102.5,334C100.6,334 99.8,313.8 101,294.5C104.9,228.9 114.4,180.2 129.9,146.5C134.5,136.6 136.1,135.6 132.9,144.6C128.2,158.2 123.1,187.9 121,213.5C119.9,227.9 119.7,298 120.8,298C121.2,298 137,286.7 156,272.8C211.2,232.5 220.4,226 222.6,225.4C224.1,225 228.4,227.1 237.4,232.6C244.3,236.8 250.3,240 250.6,239.7C251.2,239.1 235.8,221.9 227.8,214.3L224.4,211L204.5,223.9C193.5,231 176,242.3 165.6,249C155.3,255.7 146.1,261.4 145.3,261.7C144,262.2 143.9,261.4 144.5,255.9C145.8,243.4 152,208.8 155,197.1C161,173.4 176.1,135.3 188.7,112.2C194.7,101.3 197.5,98.4 193.4,107.4Z" style="fill:rgb(27,27,27);"/>
                            </g>
                            <g>
                                <path d="M2301.46,3213.09L2125.16,3057.9L1960.71,3134.15L1838.12,3331.5L2301.46,3586.74L2301.46,3213.09Z" style="fill:rgb(44,47,74);"/>
                                <clipPath id="_clip9">
                                    <path d="M2301.46,3213.09L2125.16,3057.9L1960.71,3134.15L1838.12,3331.5L2301.46,3586.74L2301.46,3213.09Z"/>
                                </clipPath>
                                <g clip-path="url(#_clip9)">
                                    <g transform="matrix(1,0,0,1.06315,-800.69,-170.116)">
                                        <path d="M2707.41,3312.77L3073.87,2946.31" style="fill:none;stroke:rgb(55,44,74);stroke-width:29.17px;stroke-linecap:round;"/>
                                        <g transform="matrix(1,0,0,1,0,93.7576)">
                                            <path d="M2707.41,3312.77L3073.87,2946.31" style="fill:none;stroke:rgb(55,44,74);stroke-width:29.17px;stroke-linecap:round;"/>
                                        </g>
                                        <g transform="matrix(1,0,0,1,0,183.229)">
                                            <path d="M2707.41,3312.77L3073.87,2946.31" style="fill:none;stroke:rgb(55,44,74);stroke-width:29.17px;stroke-linecap:round;"/>
                                        </g>
                                        <g transform="matrix(1,0,0,1,0,276.987)">
                                            <path d="M2707.41,3312.77L3151.02,2869.16" style="fill:none;stroke:rgb(55,44,74);stroke-width:29.17px;stroke-linecap:round;"/>
                                        </g>
                                        <g transform="matrix(1,0,0,1,0,366.726)">
                                            <path d="M2707.41,3312.77L3151.02,2869.16" style="fill:none;stroke:rgb(55,44,74);stroke-width:29.17px;stroke-linecap:round;"/>
                                        </g>
                                        <g transform="matrix(1,0,0,1,48.5525,415.279)">
                                            <path d="M2707.41,3312.77L3151.02,2869.16" style="fill:none;stroke:rgb(55,44,74);stroke-width:29.17px;stroke-linecap:round;"/>
                                        </g>
                                    </g>
                                </g>
                                <g transform="matrix(-1,0,0,1,4999.49,0)">
                                    <path d="M2301.46,3213.09L2125.16,3057.9L1960.71,3134.15L1838.12,3331.5L2301.46,3586.74L2301.46,3213.09Z" style="fill:rgb(44,47,74);"/>
                                    <clipPath id="_clip10">
                                        <path d="M2301.46,3213.09L2125.16,3057.9L1960.71,3134.15L1838.12,3331.5L2301.46,3586.74L2301.46,3213.09Z"/>
                                    </clipPath>
                                    <g clip-path="url(#_clip10)">
                                        <g transform="matrix(-1,0,0,1.06315,5011.28,-170.116)">
                                            <path d="M2707.41,3312.77L3073.87,2946.31" style="fill:none;stroke:rgb(55,44,74);stroke-width:29.17px;stroke-linecap:round;"/>
                                            <g transform="matrix(1,0,0,1,0,93.7576)">
                                                <path d="M2707.41,3312.77L3073.87,2946.31" style="fill:none;stroke:rgb(55,44,74);stroke-width:29.17px;stroke-linecap:round;"/>
                                            </g>
                                            <g transform="matrix(1,0,0,1,0,183.229)">
                                                <path d="M2707.41,3312.77L3073.87,2946.31" style="fill:none;stroke:rgb(55,44,74);stroke-width:29.17px;stroke-linecap:round;"/>
                                            </g>
                                            <g transform="matrix(1,0,0,1,0,276.987)">
                                                <path d="M2707.41,3312.77L3151.02,2869.16" style="fill:none;stroke:rgb(55,44,74);stroke-width:29.17px;stroke-linecap:round;"/>
                                            </g>
                                        </g>
                                    </g>
                                </g>
                            </g>
                            <g transform="matrix(1.22069,0,0,1.38847,-616.156,-1227.48)">
                                <path d="M2847.88,3082.44C2847.88,3082.44 3143.9,3182.76 3061.67,3350.51C2979.44,3518.25 3553.4,3319.26 3553.4,3319.26L3553.4,3005.15L2976.15,2773.27L2780.45,2870.3L2847.88,3005.15L2847.88,3082.44Z" style="fill:rgb(44,59,74);stroke:rgb(27,27,27);stroke-width:57.05px;stroke-linecap:round;stroke-linejoin:round;"/>
                                <g transform="matrix(-1,0,0,1,5105.56,0)">
                                    <path d="M2847.88,3082.44C2847.88,3082.44 3143.9,3182.76 3061.67,3350.51C2979.44,3518.25 3553.4,3319.26 3553.4,3319.26L3553.4,3005.15L2976.15,2773.27L2780.45,2870.3L2847.88,3005.15L2847.88,3082.44Z" style="fill:rgb(44,59,74);"/>
                                    <clipPath id="_clip11">
                                        <path d="M2847.88,3082.44C2847.88,3082.44 3143.9,3182.76 3061.67,3350.51C2979.44,3518.25 3553.4,3319.26 3553.4,3319.26L3553.4,3005.15L2976.15,2773.27L2780.45,2870.3L2847.88,3005.15L2847.88,3082.44Z"/>
                                    </clipPath>
                                    <g clip-path="url(#_clip11)">
                                        <g transform="matrix(-0.819208,0,0,0.720217,4600.8,884.049)">
                                            <path d="M1653.31,3181.77C1653.31,3181.77 1751.36,3086.7 1867.07,3006.15C1959.07,2942.1 2064.65,2893.03 2123.65,2866.57" style="fill:none;stroke:rgb(201,75,111);stroke-width:59.33px;"/>
                                        </g>
                                    </g>
                                    <path d="M2847.88,3082.44C2847.88,3082.44 3143.9,3182.76 3061.67,3350.51C2979.44,3518.25 3553.4,3319.26 3553.4,3319.26L3553.4,3005.15L2976.15,2773.27L2780.45,2870.3L2847.88,3005.15L2847.88,3082.44Z" style="fill:none;stroke:rgb(27,27,27);stroke-width:57.05px;stroke-linecap:round;stroke-linejoin:round;"/>
                                </g>
                            </g>
                            <g transform="matrix(1,0,0,1,7.83411,0)">
                                <path d="M2249.43,3110.46L2290.87,3247.9L2290.87,3730.86" style="fill:none;stroke:rgb(27,27,27);stroke-width:51.85px;"/>
                                <g transform="matrix(-1,0,0,1,4984.33,0)">
                                    <path d="M2249.43,3110.46L2290.87,3247.9L2290.87,3730.86" style="fill:none;stroke:rgb(27,27,27);stroke-width:51.85px;"/>
                                </g>
                            </g>
                        </g>
                        <path d="M2500,3831.24L1609.55,3718.17L1348.47,3218.63L1541.71,2719.13L2125.53,2788.82C2125.53,2788.82 2107.03,2992.51 2146.09,3072.68C2185.14,3152.85 2500,3327.84 2500,3327.84C2500,3327.84 2814.86,3152.85 2853.91,3072.68C2892.97,2992.51 2874.47,2788.82 2874.47,2788.82L3458.29,2719.13L3651.53,3218.63L3390.45,3718.17L2500,3831.24Z" style="fill:none;stroke:rgb(27,27,27);stroke-width:74.28px;stroke-linecap:round;stroke-linejoin:round;"/>
                    </g>
                </g>
                <path d="M2118.8,3103.74C2118.8,3103.74 1507.23,3419.01 1661.41,3514.09C1815.59,3609.17 2220.47,3920.09 2500,3920.09C2779.53,3920.09 3184.41,3609.17 3338.59,3514.09C3492.77,3419.01 2881.2,3103.74 2881.2,3103.74" style="fill:none;stroke:rgb(27,27,27);stroke-width:96.72px;stroke-linecap:round;stroke-linejoin:round;"/>
            </g>
            <g transform="matrix(0.486391,0,0,0.726933,1284.02,891.623)">
                <path d="M2374.6,3243.64C2374.6,3243.64 2458.2,3286.81 2500,3286.81C2541.8,3286.81 2625.4,3243.64 2625.4,3243.64" style="fill:none;stroke:rgb(27,27,27);stroke-width:81.38px;stroke-linecap:round;stroke-linejoin:round;"/>
            </g>
            <g transform="matrix(1,0,0,1,0,-54.2704)">
                <path d="M2500,2646.64L2500,2769.85L2564.7,2734.77L2500,2646.64Z" style="fill:rgb(159,124,199);"/>
            </g>
            <g transform="matrix(0.948472,0,0,1,124.623,0)">
                <g transform="matrix(1,0,0,1,-3.1908,88.3777)">
                    <path d="M3068.96,2456.54C3068.96,2456.54 3133.62,2478.44 3068.96,2528.74" style="fill:rgb(27,27,27);stroke:rgb(27,27,27);stroke-width:55.37px;stroke-linecap:round;stroke-linejoin:round;"/>
                </g>
                <g transform="matrix(-1,0,0,1,5012.04,88.3777)">
                    <path d="M3068.96,2456.54C3068.96,2456.54 3133.62,2478.44 3068.96,2528.74" style="fill:rgb(27,27,27);stroke:rgb(27,27,27);stroke-width:55.37px;stroke-linecap:round;stroke-linejoin:round;"/>
                </g>
            </g>
        </g>
        <g transform="matrix(1.02007,1.38778e-17,-1.38778e-17,1.10594,-58.1669,-236.047)">
            <path d="M2586.09,2256.95C2586.09,2256.95 2682.43,2462.12 2853.77,2310.12C3015.56,2166.59 2726.99,2256.95 2726.99,2256.95L2586.09,2256.95Z" style="fill:rgb(159,124,199);"/>
        </g>
        <g transform="matrix(-1.02007,1.38778e-17,1.38778e-17,1.10594,5059.74,-236.047)">
            <path d="M2586.09,2256.95C2586.09,2256.95 2682.43,2462.12 2853.77,2310.12C3015.56,2166.59 2726.99,2256.95 2726.99,2256.95L2586.09,2256.95Z" style="fill:rgb(159,124,199);"/>
        </g>
        <g transform="matrix(1,0,0,1,0.0926279,-24.7213)">
            <path d="M2562.69,2202.11C2562.69,2202.11 2520.84,2180.76 2499.91,2180.76C2478.98,2180.76 2437.12,2202.11 2437.12,2202.11" style="fill:rgb(159,124,199);stroke:rgb(159,124,199);stroke-width:57.59px;"/>
        </g>
        <g transform="matrix(1,0,0,1.06299,-1527.58,-126.329)">
            <g>
                <g transform="matrix(1,0,0,1,6919.29,235.396)">
                    <path d="M-2838.11,1857.94C-2848.53,1863.92 -2846.86,1915.64 -2843.67,1933.27C-2830.08,2008.46 -2778.56,2071.28 -2707.47,2099.32C-2707.47,2099.32 -2707.47,2099.32 -2707.47,2099.32C-2681.61,2109.53 -2652.76,2109.05 -2627.24,2098C-2616.22,2093.23 -2603.67,2087.79 -2590.57,2082.11C-2515.88,2049.76 -2463.52,1980.75 -2452.48,1900.11C-2452.07,1897.09 -2451.67,1894.16 -2451.28,1891.32C-2448.22,1869.01 -2461,1847.54 -2482.08,1839.59C-2488.9,1837.02 -2496.44,1834.17 -2504.47,1831.14C-2614.1,1789.78 -2736.48,1799.61 -2838.11,1857.94C-2838.11,1857.94 -2838.11,1857.94 -2838.11,1857.94Z" style="fill:rgb(43,255,0);"/>
                    <clipPath id="_clip12">
                        <path d="M-2838.11,1857.94C-2848.53,1863.92 -2846.86,1915.64 -2843.67,1933.27C-2830.08,2008.46 -2778.56,2071.28 -2707.47,2099.32C-2707.47,2099.32 -2707.47,2099.32 -2707.47,2099.32C-2681.61,2109.53 -2652.76,2109.05 -2627.24,2098C-2616.22,2093.23 -2603.67,2087.79 -2590.57,2082.11C-2515.88,2049.76 -2463.52,1980.75 -2452.48,1900.11C-2452.07,1897.09 -2451.67,1894.16 -2451.28,1891.32C-2448.22,1869.01 -2461,1847.54 -2482.08,1839.59C-2488.9,1837.02 -2496.44,1834.17 -2504.47,1831.14C-2614.1,1789.78 -2736.48,1799.61 -2838.11,1857.94C-2838.11,1857.94 -2838.11,1857.94 -2838.11,1857.94Z"/>
                    </clipPath>
                    <g clip-path="url(#_clip12)">
                        <g transform="matrix(1,0,0,0.940739,-4902.67,-101.768)">
                            <path d="M2103.8,2219.18L2238.77,1970" style="fill:none;stroke:white;stroke-width:20.59px;"/>
                        </g>
                        <g transform="matrix(1,0,0,0.940739,-4842.04,-58.9941)">
                            <path d="M2103.8,2219.18L2263.4,1924.53" style="fill:none;stroke:white;stroke-width:20.59px;"/>
                        </g>
                    </g>
                    <path d="M-2838.11,1857.94C-2848.53,1863.92 -2846.86,1915.64 -2843.67,1933.27C-2830.08,2008.46 -2778.56,2071.28 -2707.47,2099.32C-2707.47,2099.32 -2707.47,2099.32 -2707.47,2099.32C-2681.61,2109.53 -2652.76,2109.05 -2627.24,2098C-2616.22,2093.23 -2603.67,2087.79 -2590.57,2082.11C-2515.88,2049.76 -2463.52,1980.75 -2452.48,1900.11C-2452.07,1897.09 -2451.67,1894.16 -2451.28,1891.32C-2448.22,1869.01 -2461,1847.54 -2482.08,1839.59C-2488.9,1837.02 -2496.44,1834.17 -2504.47,1831.14C-2614.1,1789.78 -2736.48,1799.61 -2838.11,1857.94C-2838.11,1857.94 -2838.11,1857.94 -2838.11,1857.94ZM-2808.11,1904.19L-2817.14,1890.27L-2817.14,1890.27C-2771.62,1865.03 -2721.62,1850.79 -2670.96,1847.41C-2620.57,1844.04 -2569.53,1851.97 -2521.43,1870.93C-2521.43,1870.93 -2499.17,1879.7 -2499.17,1879.7C-2499.17,1879.7 -2497.86,1885.68 -2497.86,1885.68C-2497.86,1885.68 -2499.21,1894.45 -2499.21,1894.45C-2504.16,1926.68 -2517.46,1956.4 -2536.76,1981.4C-2556.02,2006.33 -2581.81,2026.12 -2611.86,2038.61C-2611.86,2038.61 -2648.79,2053.97 -2648.79,2053.97C-2654.97,2056.54 -2661.58,2057.56 -2668.13,2057.57C-2674.59,2057.59 -2680.97,2056.03 -2687.06,2053.53C-2687.06,2053.53 -2687.06,2053.53 -2687.06,2053.53C-2714.22,2042.35 -2737.14,2024.09 -2754.68,2001.7C-2772,1979.59 -2783.43,1953.02 -2788.13,1924.38C-2789.61,1915.33 -2787.68,1880.78 -2787.68,1880.78C-2787.68,1880.78 -2802.22,1900.92 -2808.11,1904.19Z" style="fill:rgb(27,27,27);"/>
                </g>
                <g transform="matrix(-1,0,0,1,1135.87,235.396)">
                    <path d="M-2838.11,1857.94C-2848.53,1863.92 -2846.86,1915.64 -2843.67,1933.27C-2830.08,2008.46 -2778.56,2071.28 -2707.47,2099.32C-2707.47,2099.32 -2707.47,2099.32 -2707.47,2099.32C-2681.61,2109.53 -2652.76,2109.05 -2627.24,2098C-2616.22,2093.23 -2603.67,2087.79 -2590.57,2082.11C-2515.88,2049.76 -2463.52,1980.75 -2452.48,1900.11C-2452.07,1897.09 -2451.67,1894.16 -2451.28,1891.32C-2448.22,1869.01 -2461,1847.54 -2482.08,1839.59C-2488.9,1837.02 -2496.44,1834.17 -2504.47,1831.14C-2614.1,1789.78 -2736.48,1799.61 -2838.11,1857.94C-2838.11,1857.94 -2838.11,1857.94 -2838.11,1857.94Z" style="fill:rgb(43,255,0);"/>
                    <clipPath id="_clip13">
                        <path d="M-2838.11,1857.94C-2848.53,1863.92 -2846.86,1915.64 -2843.67,1933.27C-2830.08,2008.46 -2778.56,2071.28 -2707.47,2099.32C-2707.47,2099.32 -2707.47,2099.32 -2707.47,2099.32C-2681.61,2109.53 -2652.76,2109.05 -2627.24,2098C-2616.22,2093.23 -2603.67,2087.79 -2590.57,2082.11C-2515.88,2049.76 -2463.52,1980.75 -2452.48,1900.11C-2452.07,1897.09 -2451.67,1894.16 -2451.28,1891.32C-2448.22,1869.01 -2461,1847.54 -2482.08,1839.59C-2488.9,1837.02 -2496.44,1834.17 -2504.47,1831.14C-2614.1,1789.78 -2736.48,1799.61 -2838.11,1857.94C-2838.11,1857.94 -2838.11,1857.94 -2838.11,1857.94Z"/>
                    </clipPath>
                    <g clip-path="url(#_clip13)">
                        <g transform="matrix(-1,0,0,0.940739,-391.707,-116.554)">
                            <path d="M2103.8,2219.18L2187.87,2063.98" style="fill:none;stroke:white;stroke-width:20.59px;"/>
                        </g>
                        <g transform="matrix(-1,0,0,0.940739,-452.331,-73.7801)">
                            <path d="M2103.8,2219.18L2212.5,2018.51" style="fill:none;stroke:white;stroke-width:20.59px;"/>
                        </g>
                    </g>
                    <path d="M-2838.11,1857.94C-2848.53,1863.92 -2846.86,1915.64 -2843.67,1933.27C-2830.08,2008.46 -2778.56,2071.28 -2707.47,2099.32C-2707.47,2099.32 -2707.47,2099.32 -2707.47,2099.32C-2681.61,2109.53 -2652.76,2109.05 -2627.24,2098C-2616.22,2093.23 -2603.67,2087.79 -2590.57,2082.11C-2515.88,2049.76 -2463.52,1980.75 -2452.48,1900.11C-2452.07,1897.09 -2451.67,1894.16 -2451.28,1891.32C-2448.22,1869.01 -2461,1847.54 -2482.08,1839.59C-2488.9,1837.02 -2496.44,1834.17 -2504.47,1831.14C-2614.1,1789.78 -2736.48,1799.61 -2838.11,1857.94C-2838.11,1857.94 -2838.11,1857.94 -2838.11,1857.94ZM-2808.11,1904.19C-2802.22,1900.92 -2787.68,1880.78 -2787.68,1880.78C-2787.68,1880.78 -2789.61,1915.33 -2788.13,1924.38C-2783.43,1953.02 -2772,1979.59 -2754.68,2001.7C-2737.14,2024.09 -2714.22,2042.35 -2687.06,2053.53C-2687.06,2053.53 -2687.06,2053.53 -2687.06,2053.53C-2680.97,2056.03 -2674.59,2057.59 -2668.13,2057.57C-2661.58,2057.56 -2654.97,2056.54 -2648.79,2053.97C-2648.79,2053.97 -2611.86,2038.61 -2611.86,2038.61C-2581.81,2026.12 -2556.02,2006.33 -2536.76,1981.4C-2517.46,1956.4 -2504.16,1926.68 -2499.21,1894.45C-2499.21,1894.45 -2497.86,1885.68 -2497.86,1885.68C-2497.86,1885.68 -2499.17,1879.7 -2499.17,1879.7C-2499.17,1879.7 -2521.43,1870.93 -2521.43,1870.93C-2569.53,1851.97 -2620.57,1844.04 -2670.96,1847.41C-2721.62,1850.79 -2771.62,1865.03 -2817.14,1890.27C-2817.14,1890.27 -2817.14,1890.27 -2817.14,1890.27L-2808.11,1904.19Z" style="fill:rgb(27,27,27);"/>
                </g>
            </g>
            <g transform="matrix(1,0,0,0.940739,1527.75,118.842)">
                <g transform="matrix(1,0,0,1,-2.7591,8.8291)">
                    <path d="M2601.79,2166.59C2601.79,2166.59 2600.17,2100.5 2625.5,2088.64C2650.83,2076.79 2563.05,2117.74 2563.05,2117.74L2563.05,2172.71L2589.39,2203.4L2601.79,2166.59Z" style="fill:rgb(27,27,27);"/>
                </g>
                <g transform="matrix(-1,0,0,1,5002.41,8.8291)">
                    <path d="M2601.79,2166.59C2601.79,2166.59 2600.17,2100.5 2625.5,2088.64C2650.83,2076.79 2563.05,2117.74 2563.05,2117.74L2563.05,2172.71L2589.39,2203.4L2601.79,2166.59Z" style="fill:rgb(27,27,27);"/>
                </g>
            </g>
            <g transform="matrix(1,0,0,1,8.0833,45.6031)">
                <path d="M4082.55,2111.43C4069.51,2105.75 4038.24,2092.38 4019.5,2092.38C4003.61,2092.38 3975.12,2101.99 3958.86,2108.38" style="fill:rgb(43,255,0);stroke:rgb(27,27,27);stroke-width:55.81px;"/>
            </g>
        </g>
        <g transform="matrix(0.993835,0.110868,-0.110868,0.993835,192.527,-300.679)">
            <path d="M2705.1,1866.4C2669.06,1891.1 2609.21,1946.44 2532.35,1965.71C2507.47,1971.95 2302.14,2184.97 2311.19,2150.96C2350.28,2004.1 2256.12,2015.72 2221.36,2078.71C2191.93,2132.06 2086.94,2222.97 2036.88,2240.33C1999.54,2253.28 2042.91,2139.17 2023.44,2119.84C2012.01,2108.49 1939.97,2199.8 1927.86,2193.72C1858.82,2159.1 1847.87,2093.29 1879.61,1996.66C1929.59,1844.54 1853.28,1809.56 1920.73,1722.84C1988.18,1636.11 2009.08,1673.59 2005.87,1587.75C2004.15,1541.79 2109.86,1432.03 2188.95,1463.37C2359.19,1530.82 2500,1432.51 2532.35,1384.33C2556.52,1348.33 2644.75,1390.58 2667.48,1406.82C2757.42,1471.06 2851.85,1549.56 2900.03,1531.18C2948.21,1512.8 3072.53,1674.72 3008.29,1713.27C2992.37,1722.82 2977.09,1743.02 2940.11,1788.77C2926.37,1805.77 2930.02,1839.5 2918.19,1853.82C2901.18,1874.4 2846.52,1900.77 2840.04,1905.35C2814.17,1923.63 2732.32,1847.75 2705.1,1866.4Z" style="fill:rgb(59,43,32);"/>
            <clipPath id="_clip14">
                <path d="M2705.1,1866.4C2669.06,1891.1 2609.21,1946.44 2532.35,1965.71C2507.47,1971.95 2302.14,2184.97 2311.19,2150.96C2350.28,2004.1 2256.12,2015.72 2221.36,2078.71C2191.93,2132.06 2086.94,2222.97 2036.88,2240.33C1999.54,2253.28 2042.91,2139.17 2023.44,2119.84C2012.01,2108.49 1939.97,2199.8 1927.86,2193.72C1858.82,2159.1 1847.87,2093.29 1879.61,1996.66C1929.59,1844.54 1853.28,1809.56 1920.73,1722.84C1988.18,1636.11 2009.08,1673.59 2005.87,1587.75C2004.15,1541.79 2109.86,1432.03 2188.95,1463.37C2359.19,1530.82 2500,1432.51 2532.35,1384.33C2556.52,1348.33 2644.75,1390.58 2667.48,1406.82C2757.42,1471.06 2851.85,1549.56 2900.03,1531.18C2948.21,1512.8 3072.53,1674.72 3008.29,1713.27C2992.37,1722.82 2977.09,1743.02 2940.11,1788.77C2926.37,1805.77 2930.02,1839.5 2918.19,1853.82C2901.18,1874.4 2846.52,1900.77 2840.04,1905.35C2814.17,1923.63 2732.32,1847.75 2705.1,1866.4Z"/>
            </clipPath>
            <g clip-path="url(#_clip14)">
                <path d="M2732.09,1562C2702.62,1554.63 2705.78,1515.69 2577.37,1598.84C2448.97,1681.99 2416.34,1823.03 2364.76,1818.82C2313.19,1814.61 2280.56,1806.19 2200.57,1830.39C2120.58,1854.6 2026.91,1910.39 1989.02,1956.7C1951.12,2003.01 1948.49,2203.51 1948.49,2203.51L2555.01,2203.51L2939.17,1789.08C2939.17,1789.08 2981.27,1623.31 2978.64,1611.47C2976.01,1599.63 2831.29,1608.84 2769.46,1579.9C2707.62,1550.95 2761.56,1569.37 2732.09,1562Z" style="fill:rgb(59,37,32);"/>
                <path d="M1790.19,1904.19C1790.19,1904.19 1882.82,1841.04 1962.81,1761.89C2042.8,1682.74 2034.38,1664.22 2143.84,1649.06C2253.3,1633.9 2271.83,1616.22 2298.77,1572.43" style="fill:none;stroke:rgb(59,37,32);stroke-width:50.33px;stroke-linecap:round;stroke-linejoin:round;"/>
                <g transform="matrix(0.993835,-0.110868,0.110868,0.993835,-158.005,320.171)">
                    <path d="M1933.01,2043.56C1933.01,2043.56 1933.01,2043.56 1933.01,2043.56C1915,2059.63 1888.78,2062.54 1867.68,2050.81C1846.58,2039.08 1835.22,2015.28 1839.38,1991.49C1844.64,1961.32 1848.54,1939.03 1848.54,1939.03C1848.54,1939.03 1864.11,1901.65 1879.03,1865.85C1896.77,1823.29 1905.9,1777.64 1905.9,1731.54L1905.9,1731.54C1905.9,1687.67 1926.87,1646.45 1962.33,1620.63C1971.69,1613.81 1981.17,1606.9 1989.85,1600.58C2013.06,1583.67 2028.86,1558.48 2033.99,1530.23C2035.58,1521.44 2037.18,1512.59 2038.56,1505.02C2041.03,1491.38 2047.86,1478.9 2058.02,1469.46C2064.08,1463.83 2071.5,1456.95 2079.54,1449.48C2125.33,1406.95 2195.66,1405.28 2243.42,1445.57C2243.42,1445.57 2243.42,1445.57 2243.42,1445.57C2257.9,1457.78 2278.37,1459.89 2295.03,1450.89C2354.82,1418.59 2490.93,1345.07 2490.93,1345.07" style="fill:none;stroke:rgb(201,75,111);stroke-width:53.96px;"/>
                </g>
                <g transform="matrix(0.993835,-0.110868,0.110868,0.993835,-158.005,320.171)">
                    <path d="M3014.55,1716.61C3014.55,1716.61 2994.08,1549.35 2896.37,1534.3C2798.65,1519.26 2767.99,1535.55 2757.45,1483.82C2746.91,1432.08 2701.89,1551.84 2778.53,1576.74C2855.17,1601.65 2881.99,1643.8 2757.45,1642.85C2632.91,1641.89 2580.22,1658.12 2540.94,1698.38C2501.66,1738.65 2559.14,1730.03 2639.62,1716.61C2720.09,1703.2 2738.29,1767.39 2757.45,1792.3C2776.61,1817.2 2620.46,1776.01 2597.47,1792.3C2574.47,1808.58 2552.44,1839.8 2511.24,1853.41C2470.05,1867.02 2420.68,1923.55 2420.68,1923.55L2576.39,1912.05L2699.01,1843.07L2802.48,1923.55L2879.51,1912.05L2896.37,1826.79L3014.55,1716.61Z" style="fill:rgb(44,47,74);"/>
                </g>
            </g>
            <path d="M2705.1,1866.4C2669.06,1891.1 2609.21,1946.44 2532.35,1965.71C2507.47,1971.95 2302.14,2184.97 2311.19,2150.96C2350.28,2004.1 2256.12,2015.72 2221.36,2078.71C2191.93,2132.06 2086.94,2222.97 2036.88,2240.33C1999.54,2253.28 2042.91,2139.17 2023.44,2119.84C2012.01,2108.49 1939.97,2199.8 1927.86,2193.72C1858.82,2159.1 1847.87,2093.29 1879.61,1996.66C1929.59,1844.54 1853.28,1809.56 1920.73,1722.84C1988.18,1636.11 2009.08,1673.59 2005.87,1587.75C2004.15,1541.79 2109.86,1432.03 2188.95,1463.37C2359.19,1530.82 2500,1432.51 2532.35,1384.33C2556.52,1348.33 2644.75,1390.58 2667.48,1406.82C2757.42,1471.06 2851.85,1549.56 2900.03,1531.18C2948.21,1512.8 3072.53,1674.72 3008.29,1713.27C2992.37,1722.82 2977.09,1743.02 2940.11,1788.77C2926.37,1805.77 2930.02,1839.5 2918.19,1853.82C2901.18,1874.4 2846.52,1900.77 2840.04,1905.35C2814.17,1923.63 2732.32,1847.75 2705.1,1866.4Z" style="fill:none;stroke:rgb(27,27,27);stroke-width:72.11px;stroke-linecap:round;stroke-linejoin:round;"/>
        </g>
        <g transform="matrix(1,0,0,1,-1.56115,0)">
            <g transform="matrix(1,0,0,1,-9.26208,-31.9963)">
                <path d="M1863.17,3180.47L1959.4,3248.75" style="fill:none;stroke:rgb(27,27,27);stroke-width:31.48px;stroke-linecap:round;stroke-linejoin:round;"/>
                <g transform="matrix(0.991548,0.129739,-0.129739,0.991548,495.726,-283.849)">
                    <path d="M1863.17,3180.47L1959.4,3248.75" style="fill:none;stroke:rgb(27,27,27);stroke-width:31.48px;stroke-linecap:round;stroke-linejoin:round;"/>
                </g>
                <g transform="matrix(0.951316,0.308219,-0.308219,0.951316,1220.73,-557.614)">
                    <path d="M1863.17,3180.47L1959.4,3248.75" style="fill:none;stroke:rgb(27,27,27);stroke-width:31.48px;stroke-linecap:round;stroke-linejoin:round;"/>
                </g>
            </g>
            <g transform="matrix(-1,0,0,1,5012.38,-25.9518)">
                <path d="M1863.17,3180.47L1959.4,3248.75" style="fill:none;stroke:rgb(27,27,27);stroke-width:31.48px;stroke-linecap:round;stroke-linejoin:round;"/>
                <g transform="matrix(0.991548,0.129739,-0.129739,0.991548,495.726,-283.849)">
                    <path d="M1863.17,3180.47L1959.4,3248.75" style="fill:none;stroke:rgb(27,27,27);stroke-width:31.48px;stroke-linecap:round;stroke-linejoin:round;"/>
                </g>
                <g transform="matrix(0.951316,0.308219,-0.308219,0.951316,1220.73,-557.614)">
                    <path d="M1863.17,3180.47L1959.4,3248.75" style="fill:none;stroke:rgb(27,27,27);stroke-width:31.48px;stroke-linecap:round;stroke-linejoin:round;"/>
                </g>
            </g>
        </g>
        <g transform="matrix(1,0,0,1,21.0502,-30.7789)">
            <path d="M3284.27,3190.44C3284.27,3190.44 3143.71,3048.19 3079.61,3029.16" style="fill:none;stroke:rgb(27,27,27);stroke-width:24.22px;stroke-linecap:round;stroke-linejoin:round;"/>
        </g>
        <g transform="matrix(1,0,0,1,2.26858,0)">
            <path d="M2890.98,2105.1L3032.02,2054.73L3020.44,2140.64L2906.77,2179.98L2890.98,2105.1Z" style="fill:rgb(27,27,27);"/>
            <g transform="matrix(-1,0,0,1,4995.46,0)">
                <path d="M2890.98,2105.1L3032.02,2054.73L3020.44,2140.64L2906.77,2179.98L2890.98,2105.1Z" style="fill:rgb(27,27,27);"/>
            </g>
        </g>
    </g>
    <g id="Mouth" transform="matrix(2.09439,0,0,1,-2819.57,0)">
        <path d="M2500,2596.51L2579.84,2596.51" style="fill:none;stroke:rgb(27,27,27);stroke-width:14.76px;stroke-linecap:round;"/>
    </g>
</svg>
